<?xml version="1.0" encoding="utf-8"?>
<!-- Generator: Adobe Illustrator 23.0.4, SVG Export Plug-In . SVG Version: 6.00 Build 0)  -->
<svg version="1.1" id="Layer_1" xmlns="http://www.w3.org/2000/svg" xmlns:xlink="http://www.w3.org/1999/xlink" x="0px" y="0px"
	 viewBox="0 0 173 100" style="enable-background:new 0 0 173 100;" xml:space="preserve">
<style type="text/css">
	.st0{clip-path:url(#SVGID_2_);}
	.st1{clip-path:url(#SVGID_4_);fill:#FFFFFF;}
	.st2{clip-path:url(#SVGID_6_);}
	.st3{clip-path:url(#SVGID_8_);fill:#AF001E;}
</style>
<g>
	<defs>
		<path id="SVGID_1_" d="M67,0v100H0V0H67z M173,0v100H73V0H173z"/>
	</defs>
	<clipPath id="SVGID_2_">
		<use xlink:href="#SVGID_1_"  style="overflow:visible;"/>
	</clipPath>
	<g class="st0">
		<defs>
			<rect id="SVGID_3_" width="173" height="100"/>
		</defs>
		<clipPath id="SVGID_4_">
			<use xlink:href="#SVGID_3_"  style="overflow:visible;"/>
		</clipPath>
		<rect x="-5" y="-5" class="st1" width="183" height="110"/>
	</g>
</g>
<g>
	<defs>
		<path id="SVGID_5_" d="M39.89,10.72c-4.21,0-7.38,1.81-9.08,8.04l-0.09,0.35l-0.94,3.65c-0.64,2.47-1.43,3.6-3.25,3.6
			c-2.56,0-3.06-2.37-3.06-4.64c0-3.06,0.25-6.17,0.34-7.4c0.1-1.22-0.04-1.59-1-1.8l-0.14-0.03l-3.7-0.59
			c-0.74-0.1-1.03,0.24-1.13,0.89c-0.2,1.43-0.44,4.59-0.44,8.58c0,8.14,3.55,12.09,9.17,12.09c4.97,0,7.96-2.65,9.24-7.25l0.08-0.3
			l0.94-3.65c0.79-3.01,1.68-4.29,3.55-4.29c2.76,0,3.26,1.87,3.26,6.41c0,2.07-0.3,5.67-0.4,6.91c-0.09,1.23,0.04,1.59,1,1.8
			l0.14,0.03l3.8,0.59c0.74,0.1,1.03-0.25,1.13-0.89c0.2-1.43,0.44-5.03,0.44-8.54C49.75,16.45,47.18,10.72,39.89,10.72z
			 M22.43,35.96h-3.35c-0.93,0-1.29,0.26-1.33,1.13l0,0.15v23.87c0,0.93,0.31,1.25,1.18,1.28l0.15,0h3.35
			c0.93,0,1.29-0.27,1.33-1.13l0-0.15v-8.38h24.36c0.94,0,1.29-0.27,1.33-1.13l0-0.15v-4.54c0-0.94-0.31-1.25-1.18-1.28l-0.15,0
			H23.77v-8.39C23.77,36.25,23.42,35.96,22.43,35.96z M147.28,37.37c2.5,0,3.91,1.59,3.99,4.49l0,0.27v22.37
			c0,3.07-1.42,4.76-4,4.76c-2.54,0-3.97-1.59-4.06-4.49l0-0.27V42.13C143.22,39.06,144.66,37.37,147.28,37.37z M136.2,25.7h-3.8
			c-4.38,0-6.38,1.74-6.46,5.64l0,0.26v1.14h-2.6v4.75h2.6v36.38h6.02V37.5h4.25v-4.75h-4.25v-1.02c0-1.19,0.35-1.61,1.43-1.65
			l0.16,0h2.66V25.7z M113.39,32.3c-2.68,0-4.69,1-6.01,2.98l-0.15,0.23v-2.77h-6.02v41.14h6.02v-32.2c0-2.78,1.37-4.32,3.87-4.32
			c2.42,0,3.49,1.2,3.55,3.99l0,0.26v32.26h6.02V41.43C120.68,35.37,118.23,32.3,113.39,32.3z M96.98,25.7h-6.21v48.18h6.21V25.7z
			 M147.28,32.3c-6.26,0-9.89,3.75-10.01,10.32l0,0.34v20.72c0,6.77,3.65,10.65,10.01,10.65c6.13,0,9.83-3.85,9.95-10.32l0-0.33
			V42.95C157.23,36.18,153.61,32.3,147.28,32.3z M47.91,62.77l-0.14,0.08l-11.93,7.2c-1.53-2.42-3.7-5.13-8.48-5.13
			c-6.06,0-9.5,3.35-9.61,10.69l0,0.36v11c0,0.93,0.31,1.25,1.18,1.28l0.15,0h29.04c0.94,0,1.29-0.27,1.33-1.13l0-0.15v-4.54
			c0-0.94-0.31-1.25-1.18-1.28l-0.15,0H23.62v-4.69c0-2.96,1.09-4.39,3.85-4.39c2.51,0,3.3,1.13,3.8,2.27
			c0.57,1.38,0,1.89,1.63,2.32l0.19,0.05l2.07,0.5c0.59,0.15,0.89,0.2,1.08,0.2c0.44,0,0.8-0.12,1.29-0.39l0.19-0.11l10.55-5.87
			c0.79-0.46,1.14-0.84,1.18-1.87l0-0.2V63.6C49.45,62.93,49.04,62.13,47.91,62.77z M173,0v100H73.04V0H173z M67.01,0v100H0V0H67.01
			z"/>
	</defs>
	<clipPath id="SVGID_6_">
		<use xlink:href="#SVGID_5_"  style="overflow:visible;"/>
	</clipPath>
	<g class="st2">
		<defs>
			<rect id="SVGID_7_" width="173" height="100"/>
		</defs>
		<clipPath id="SVGID_8_">
			<use xlink:href="#SVGID_7_"  style="overflow:visible;"/>
		</clipPath>
		<rect x="-5" y="-5" class="st3" width="183" height="110"/>
	</g>
</g>
</svg>
